<svg class="Icon--facebook-25410fb7 Footer__menu__icon"><use xmlns:xlink="http://www.w3.org/2000/xlink" xlink:href="#Icon--facebook-25410fb7"><symbol id="Icon--facebook-25410fb7" viewBox="0 0 32 32"><title>facebook</title><path fill="#fff" d="M24.8 18.2c0.4 0 0.8-0.3 0.8-0.7l0.5-4.5c0.1-0.5-0.3-0.9-0.8-0.9h-5.3v-3.8c0-1.7 0.5-2.8 2.9-2.8h2.2c0.5 0 0.8-0.4 0.8-0.8v-3.9c0.1-0.4-0.3-0.8-0.8-0.8h-3.7c-4.4 0-7.4 2.7-7.4 7.7v4.3h-3.6c-0.5 0-0.8 0.4-0.8 0.9v4.5c0 0.5 0.4 0.8 0.8 0.8h3.6v13.8h6v-13.8h4.8z"></path></symbol></use></svg>