<svg class="Icon--tiktok-f6f41e39 Footer__menu__icon"><use xmlns:xlink="http://www.w3.org/2000/xlink" xlink:href="#Icon--tiktok-f6f41e39"><symbol id="Icon--tiktok-f6f41e39" viewBox="0 0 32 32"><style type="text/css">
	.st0{fill:#FFFFFF;}
</style><path class="st0" d="M6.5,15c1.5-1.6,3.7-2.6,6-2.6c0.1,0,1,0,1.4,0.1v4.8c-0.4-0.1-0.8-0.2-1.2-0.2c-2.2,0-4,1.8-4,4  c0,0.5,0.1,0.9,0.2,1.3c0,0,0.3,0.8,0.8,1.4c0.7,0.8,1.8,1.3,2.9,1.3c2.1,0,3.9-1.7,4-3.8l0-19h4.7c0,1.7,0.6,3.2,1.6,4.3  c0.9,1.1,2.2,1.8,3.6,2.1c0.4,0.1,0.9,0.1,1.4,0.1v4.7c-2.5,0-4.7-0.8-6.6-2.1c0,0,0,1.5,0,3.3c0,2.8,0,6.3,0,6.3  c0,4.8-3.9,8.7-8.7,8.7c-2.5,0-4.8-1.1-6.4-2.8C4.9,25.4,4,23.3,4,21.1C4,18.7,5,16.5,6.5,15z"></path></symbol></use></svg>