<svg class="Icon--blog-66f0335a Footer__menu__icon"><use xmlns:xlink="http://www.w3.org/2000/xlink" xlink:href="#Icon--blog-66f0335a"><symbol id="Icon--blog-66f0335a" viewBox="0 0 32 32"><title>blog</title><path fill="#fff" d="M0 0v6.1c14.2 0 25.8 11.6 25.8 25.9h6.2c0-17.6-14.4-32-32-32v0z"></path><path fill="#fff" d="M0 10.9v6.1c4 0 7.8 1.6 10.6 4.4s4.4 6.6 4.4 10.6h6.2c-0.1-11.6-9.6-21.1-21.2-21.1v0z"></path><path fill="#fff" d="M4.3 23.5c-2.3 0-4.3 1.9-4.3 4.2 0 2.4 1.9 4.3 4.3 4.3s4.3-1.9 4.3-4.2c-0.1-2.4-2-4.3-4.3-4.3v0z"></path></symbol></use></svg>