<svg width="64" height="64" viewBox="0 0 64 64" fill="none" xmlns="http://www.w3.org/2000/svg">
<mask id="mask0_2495_19677" style="mask-type:alpha" maskUnits="userSpaceOnUse" x="8" y="8" width="48" height="48">
<circle cx="32" cy="32" r="24" fill="#009C3B"/>
</mask>
<g mask="url(#mask0_2495_19677)">
<path d="M66.2853 8H-2.28613V56H66.2853V8Z" fill="#009C3B"/>
<path d="M3.54199 32L31.9991 50.1715L60.4563 32L31.9991 13.8286L3.54199 32Z" fill="#FFDF00"/>
<path d="M32 44C38.6274 44 44 38.6274 44 32C44 25.3726 38.6274 20 32 20C25.3726 20 20 25.3726 20 32C20 38.6274 25.3726 44 32 44Z" fill="#002776"/>
<mask id="mask1_2495_19677" style="mask-type:alpha" maskUnits="userSpaceOnUse" x="20" y="20" width="24" height="24">
<path d="M32 44C38.6274 44 44 38.6274 44 32C44 25.3726 38.6274 20 32 20C25.3726 20 20 25.3726 20 32C20 38.6274 25.3726 44 32 44Z" fill="white"/>
</mask>
<g mask="url(#mask1_2495_19677)">
<path d="M-4 56.0003C-4 39.9051 9.0477 26.8574 25.1429 26.8574C41.238 26.8574 54.2857 39.9051 54.2857 56.0003H52.5714C52.5714 40.8519 40.2912 28.5717 25.1429 28.5717C9.99448 28.5717 -2.28571 40.8519 -2.28571 56.0003H-4Z" fill="white"/>
</g>
<path d="M21.6257 27.3577C21.9076 27.3231 22.1673 27.549 22.2058 27.8622C22.2442 28.1755 22.0469 28.4575 21.765 28.4921C21.4831 28.5267 21.2233 28.3008 21.1849 27.9876C21.1464 27.6743 21.3438 27.3923 21.6257 27.3577ZM21.6516 27.5684C21.486 27.5887 21.3714 27.7648 21.3955 27.9617C21.4197 28.1586 21.5735 28.3017 21.7391 28.2814C21.9047 28.2611 22.0193 28.085 21.9951 27.8881C21.9709 27.6912 21.8171 27.5481 21.6516 27.5684Z" fill="#009B3A"/>
<path d="M23.284 27.2023C23.4819 27.1885 23.6535 27.3377 23.6673 27.5356C23.6812 27.7335 23.532 27.9051 23.3341 27.9189L22.878 27.9508L22.9077 28.3743L22.6959 28.3891L22.6325 27.2479L23.284 27.2023ZM23.2825 27.4152L22.8427 27.4459L22.8632 27.7391L23.303 27.7084C23.3839 27.7027 23.445 27.6325 23.4393 27.5515C23.4337 27.4706 23.3634 27.4095 23.2825 27.4152Z" fill="#009B3A"/>
<path d="M23.6654 28.3213C23.654 28.1585 23.6289 27.8001 23.3846 27.8172L23.0752 27.8389C23.4335 27.8138 23.4586 28.1721 23.4699 28.335" fill="#009B3A"/>
<path d="M24.6637 27.1468C24.7936 27.1446 24.919 27.194 25.0125 27.2842C25.1059 27.3745 25.1597 27.4981 25.162 27.628L25.1648 27.7913C25.1695 28.0617 24.9541 28.2848 24.6836 28.2895L24.1449 28.2989L24.125 27.1562L24.6637 27.1468ZM24.6511 27.3593L24.3409 27.3648L24.3535 28.083L24.6636 28.0776C24.8349 28.0746 24.9713 27.9333 24.9684 27.762L24.9666 27.6641C24.9637 27.4928 24.8224 27.3564 24.6511 27.3593Z" fill="#009B3A"/>
<path d="M25.5959 28.2847L26.6238 28.3206L26.6312 28.1085L25.7991 28.0795L25.8093 27.7858L26.462 27.8086L26.4688 27.6128L25.8162 27.59L25.8241 27.3615L26.6073 27.3889L26.6147 27.1768L25.6357 27.1426L25.5959 28.2847Z" fill="#009B3A"/>
<path d="M27.0459 28.3465L27.2411 28.3636L27.3094 27.5829L27.4688 28.3835L27.6477 28.3992L27.9437 27.6384L27.8754 28.4191L28.0706 28.4362L28.1702 27.2977L27.8855 27.2728L27.5895 28.0335L27.4301 27.2329L27.1455 27.208L27.0459 28.3465Z" fill="#009B3A"/>
<path d="M29.4137 28.6133L30.2585 28.7585L30.2916 28.5654L29.64 28.4534L29.6842 28.196L30.2152 28.2872L30.2484 28.0941L29.7174 28.0029L29.7478 27.8259L30.3794 27.9344L30.4125 27.7413L29.5879 27.5996L29.4137 28.6133Z" fill="#009B3A"/>
<path d="M32.5182 28.1007C32.7102 28.1504 32.8257 28.3463 32.776 28.5384C32.7263 28.7304 32.5304 28.8459 32.3383 28.7962L31.8957 28.6817L31.7895 29.0927L31.584 29.0396L31.8859 27.9372L32.5182 28.1007ZM32.4492 28.3021L32.0225 28.1917L31.9489 28.4762L32.3757 28.5866C32.4542 28.6069 32.5344 28.5597 32.5547 28.4812C32.575 28.4026 32.5278 28.3224 32.4492 28.3021Z" fill="#009B3A"/>
<path d="M33.9675 28.525C34.1567 28.5847 34.2617 28.7864 34.2021 28.9756C34.1424 29.1648 33.9407 29.2698 33.7515 29.2101L33.3155 29.0727L33.1879 29.4775L32.9854 29.4137L33.3447 28.3286L33.9675 28.525ZM33.8881 28.7225L33.4677 28.59L33.3793 28.8703L33.7997 29.0028C33.8771 29.0272 33.9597 28.9843 33.9841 28.9069C34.0085 28.8295 33.9655 28.7469 33.8881 28.7225Z" fill="#009B3A"/>
<path d="M33.9123 29.7057C33.9614 29.55 34.0694 29.2074 33.8359 29.1338L33.54 29.0405C33.8826 29.1485 33.7746 29.4911 33.7255 29.6468" fill="#009B3A"/>
<path d="M35.2483 28.9701C35.5144 29.0696 35.6404 29.3899 35.5299 29.6855C35.4194 29.9811 35.1141 30.1401 34.8481 30.0406C34.582 29.9412 34.456 29.6209 34.5665 29.3253C34.677 29.0297 34.9823 28.8707 35.2483 28.9701ZM35.174 29.1689C35.0177 29.1105 34.8348 29.2138 34.7653 29.3996C34.6958 29.5854 34.7662 29.7834 34.9224 29.8418C35.0787 29.9002 35.2616 29.797 35.3311 29.6112C35.4006 29.4254 35.3302 29.2274 35.174 29.1689Z" fill="#009B3A"/>
<mask id="mask2_2495_19677" style="mask-type:alpha" maskUnits="userSpaceOnUse" x="35" y="29" width="3" height="2">
<path d="M35.722 30.3791L36.1777 29.3311L37.121 29.7412L36.6653 30.7893L35.722 30.3791ZM36.4996 29.8805L36.4215 30.0602L36.8931 30.2652L36.9713 30.0856L36.4996 29.8805Z" fill="white"/>
</mask>
<g mask="url(#mask2_2495_19677)">
<path d="M36.6494 29.5361C36.9098 29.6494 37.019 29.9758 36.8931 30.2652C36.7673 30.5546 36.4541 30.6975 36.1937 30.5842C35.9332 30.4709 35.824 30.1445 35.9499 29.8551C36.0757 29.5657 36.3889 29.4229 36.6494 29.5361ZM36.5647 29.7308C36.4118 29.6643 36.2236 29.7578 36.1445 29.9397C36.0654 30.1216 36.1253 30.323 36.2783 30.3896C36.4313 30.4561 36.6194 30.3625 36.6985 30.1806C36.7776 29.9987 36.7177 29.7973 36.5647 29.7308Z" fill="#009B3A"/>
</g>
<path d="M36.8929 30.2653L36.4961 30.0928L36.431 30.2425L36.8278 30.415L36.8929 30.2653Z" fill="#009B3A"/>
<path d="M36.8929 30.2653L36.7432 30.2002L36.5153 30.7242L36.665 30.7893L36.8929 30.2653Z" fill="#009B3A"/>
<path d="M38.1577 30.244C38.3352 30.3325 38.4073 30.5482 38.3188 30.7257C38.2303 30.9032 38.0146 30.9754 37.8371 30.8869L37.428 30.6829L37.2386 31.0628L37.0487 30.9681L37.5732 29.9526L38.1577 30.244ZM38.0483 30.4267L37.6538 30.23L37.5227 30.493L37.9172 30.6897C37.9898 30.7259 38.0781 30.6963 38.1143 30.6237C38.1505 30.5511 38.121 30.4629 38.0483 30.4267Z" fill="#009B3A"/>
<path d="M37.918 31.4013C37.9908 31.2552 38.1511 30.9337 37.9319 30.8244L37.6543 30.686C37.9757 30.8463 37.8155 31.1677 37.7426 31.3139" fill="#009B3A"/>
<path d="M38.3425 31.6256L39.2377 32.132L39.3422 31.9473L38.6175 31.5373L38.7622 31.2815L39.3306 31.6031L39.4271 31.4326L38.8587 31.111L38.9713 30.9121L39.6534 31.298L39.7579 31.1132L38.9053 30.6309L38.3425 31.6256Z" fill="#009B3A"/>
<path d="M40.0096 32.1849C39.9482 32.2813 40.0104 32.3887 40.1481 32.4765C40.2858 32.5642 40.3796 32.561 40.4192 32.4991C40.5442 32.3029 39.8216 32.0167 40.0443 31.6747C40.2363 31.3808 40.5649 31.6095 40.6889 31.6885C40.8128 31.7674 41.0118 31.9716 40.857 32.207L40.647 32.0732C40.7128 31.9699 40.6406 31.8707 40.5304 31.8005C40.4237 31.7325 40.337 31.7015 40.2734 31.8013C40.1669 31.9609 40.8751 32.2621 40.658 32.6029C40.4979 32.8542 40.2194 32.7445 40.0335 32.626C39.8751 32.5252 39.6385 32.2873 39.7927 32.0468L40.0096 32.1849Z" fill="#009B3A"/>
<path d="M41.2356 32.9954C41.1693 33.0885 41.2258 33.199 41.3587 33.2938C41.4916 33.3886 41.5855 33.3903 41.6283 33.3306C41.7634 33.1412 41.0566 32.8176 41.297 32.4877C41.5042 32.2043 41.8203 32.4499 41.9399 32.5352C42.0596 32.6205 42.2476 32.8349 42.0807 33.0618L41.878 32.9172C41.9491 32.8175 41.8822 32.7146 41.7758 32.6387C41.6728 32.5653 41.5879 32.5297 41.5191 32.6261C41.4044 32.7799 42.096 33.1178 41.8613 33.4467C41.6883 33.6893 41.4158 33.5652 41.2364 33.4372C41.0836 33.3281 40.8597 33.0782 41.0263 32.8461L41.2356 32.9954Z" fill="#009B3A"/>
<path d="M43.1066 33.4163C43.3289 33.5932 43.3498 33.9367 43.1533 34.1837C42.9569 34.4307 42.6174 34.4876 42.3951 34.3108C42.1729 34.1339 42.1519 33.7904 42.3484 33.5434C42.5448 33.2964 42.8843 33.2395 43.1066 33.4163ZM42.9745 33.5824C42.8439 33.4786 42.638 33.5203 42.5145 33.6755C42.391 33.8308 42.3967 34.0408 42.5273 34.1446C42.6578 34.2485 42.8638 34.2068 42.9872 34.0516C43.1107 33.8963 43.105 33.6863 42.9745 33.5824Z" fill="#009B3A"/>
<path d="M22.2031 29.3306L22.0442 29.8197L22.2888 29.8991" fill="white"/>
<path d="M22.2031 29.3306L22.362 29.8197L22.1175 29.8991" fill="white"/>
<path d="M22.6924 29.6855H22.1781V29.9427" fill="white"/>
<path d="M22.6934 29.686L22.2773 29.9883L22.1261 29.7803" fill="white"/>
<path d="M21.7139 29.686L22.1299 29.9883L22.2811 29.7803" fill="white"/>
<path d="M21.7148 29.686H22.2291V29.9432" fill="white"/>
<path d="M22.5049 30.2607L22.346 29.7716L22.1014 29.8511" fill="white"/>
<path d="M22.5059 30.2612L22.0898 29.9589L22.2409 29.7509" fill="white"/>
<path d="M21.9004 30.2612L22.3165 29.9589L22.1653 29.7509" fill="white"/>
<path d="M21.9014 30.2607L22.0603 29.7716L22.3048 29.8511" fill="white"/>
<path d="M23.2646 34.3755L23.1057 34.8646L23.3503 34.9441" fill="white"/>
<path d="M23.2646 34.3755L23.4236 34.8646L23.179 34.9441" fill="white"/>
<path d="M23.7539 34.7305H23.2396V34.9876" fill="white"/>
<path d="M23.7549 34.731L23.3388 35.0332L23.1877 34.8252" fill="white"/>
<path d="M22.7754 34.731L23.1915 35.0332L23.3426 34.8252" fill="white"/>
<path d="M22.7764 34.731H23.2907V34.9881" fill="white"/>
<path d="M23.5664 35.3057L23.4075 34.8165L23.1629 34.896" fill="white"/>
<path d="M23.5674 35.3062L23.1513 35.0039L23.3025 34.7958" fill="white"/>
<path d="M22.9619 35.3062L23.378 35.0039L23.2268 34.7958" fill="white"/>
<path d="M22.9629 35.3057L23.1218 34.8165L23.3664 34.896" fill="white"/>
<path d="M21.7959 35.5386L21.6635 35.9462L21.8673 36.0124" fill="white"/>
<path d="M21.7949 35.5386L21.9274 35.9462L21.7236 36.0124" fill="white"/>
<path d="M22.2031 35.835H21.7746V36.0492" fill="white"/>
<path d="M22.2031 35.835L21.8564 36.0869L21.7304 35.9135" fill="white"/>
<path d="M21.3887 35.8345L21.7354 36.0864L21.8613 35.913" fill="white"/>
<path d="M21.3877 35.8345H21.8163V36.0488" fill="white"/>
<path d="M22.0479 36.3135L21.9154 35.9059L21.7116 35.9721" fill="white"/>
<path d="M22.0479 36.314L21.7011 36.0621L21.8271 35.8887" fill="white"/>
<path d="M21.5439 36.314L21.8907 36.0621L21.7647 35.8887" fill="white"/>
<path d="M21.5439 36.3135L21.6764 35.9059L21.8802 35.9721" fill="white"/>
<path d="M24.4404 33.9102L24.3648 34.1431L24.4812 34.1809" fill="white"/>
<path d="M24.4414 33.9102L24.5171 34.1431L24.4006 34.1809" fill="white"/>
<path d="M24.6738 34.0796H24.4289V34.202" fill="white"/>
<path d="M24.6738 34.0796L24.4757 34.2235L24.4037 34.1245" fill="white"/>
<path d="M24.208 34.0791L24.4061 34.223L24.4781 34.124" fill="white"/>
<path d="M24.208 34.0791H24.4529V34.2016" fill="white"/>
<path d="M24.585 34.353L24.5093 34.1201L24.3928 34.158" fill="white"/>
<path d="M24.585 34.353L24.3868 34.2091L24.4588 34.11" fill="white"/>
<path d="M24.2969 34.353L24.495 34.2091L24.423 34.11" fill="white"/>
<path d="M24.2969 34.353L24.3726 34.1201L24.489 34.158" fill="white"/>
<path d="M25.7627 35.6533L25.6303 36.0609L25.8341 36.1271" fill="white"/>
<path d="M25.7617 35.6533L25.8942 36.0609L25.6904 36.1271" fill="white"/>
<path d="M26.1699 35.9492H25.7414V36.1635" fill="white"/>
<path d="M26.1699 35.9492L25.8232 36.2011L25.6972 36.0278" fill="white"/>
<path d="M25.3555 35.9492L25.7022 36.2011L25.8281 36.0278" fill="white"/>
<path d="M25.3545 35.9492H25.7831V36.1635" fill="white"/>
<path d="M26.0146 36.4282L25.8822 36.0206L25.6784 36.0868" fill="white"/>
<path d="M26.0146 36.4282L25.6679 36.1763L25.7939 36.003" fill="white"/>
<path d="M25.5107 36.4287L25.8575 36.1768L25.7315 36.0034" fill="white"/>
<path d="M25.5107 36.4282L25.6432 36.0206L25.847 36.0868" fill="white"/>
<path d="M25.4043 36.9307L25.2983 37.2567L25.4614 37.3097" fill="white"/>
<path d="M25.4043 36.9307L25.5102 37.2567L25.3472 37.3097" fill="white"/>
<path d="M25.7305 37.168H25.3876V37.3394" fill="white"/>
<path d="M25.7295 37.168L25.4521 37.3695L25.3514 37.2308" fill="white"/>
<path d="M25.0781 37.168L25.3555 37.3695L25.4563 37.2308" fill="white"/>
<path d="M25.0771 37.1675H25.42V37.3389" fill="white"/>
<path d="M25.6055 37.5508L25.4995 37.2247L25.3365 37.2777" fill="white"/>
<path d="M25.6055 37.5508L25.3281 37.3493L25.4289 37.2106" fill="white"/>
<path d="M25.2021 37.5513L25.4795 37.3497L25.3788 37.2111" fill="white"/>
<path d="M25.2021 37.5513L25.3081 37.2252L25.4711 37.2782" fill="white"/>
<path d="M35.7217 27.7632L35.5628 28.2523L35.8073 28.3318" fill="white"/>
<path d="M35.7217 27.7632L35.8806 28.2523L35.636 28.3318" fill="white"/>
<path d="M36.2109 28.1182H35.6967V28.3753" fill="white"/>
<path d="M36.2119 28.1187L35.7958 28.4209L35.6447 28.2129" fill="white"/>
<path d="M35.2324 28.1187L35.6485 28.4209L35.7996 28.2129" fill="white"/>
<path d="M35.2334 28.1187H35.7477V28.3758" fill="white"/>
<path d="M36.0234 28.6934L35.8645 28.2042L35.62 28.2837" fill="white"/>
<path d="M36.0244 28.6938L35.6083 28.3916L35.7595 28.1835" fill="white"/>
<path d="M35.4189 28.6938L35.835 28.3916L35.6839 28.1835" fill="white"/>
<path d="M35.4199 28.6934L35.5788 28.2042L35.8234 28.2837" fill="white"/>
<path d="M40.4072 35.6978L40.2483 36.1869L40.4929 36.2663" fill="white"/>
<path d="M40.4072 35.6978L40.5661 36.1869L40.3216 36.2663" fill="white"/>
<path d="M40.8965 36.0527H40.3822V36.3099" fill="white"/>
<path d="M40.8975 36.0527L40.4814 36.355L40.3303 36.147" fill="white"/>
<path d="M39.918 36.0532L40.334 36.3555L40.4852 36.1475" fill="white"/>
<path d="M39.9189 36.0527H40.4332V36.3099" fill="white"/>
<path d="M40.709 36.6279L40.5501 36.1388L40.3055 36.2183" fill="white"/>
<path d="M40.71 36.6284L40.2939 36.3261L40.445 36.1181" fill="white"/>
<path d="M40.1045 36.6284L40.5206 36.3261L40.3694 36.1181" fill="white"/>
<path d="M40.1055 36.6279L40.2644 36.1388L40.5089 36.2183" fill="white"/>
<path d="M42.0732 35.9839L41.9673 36.31L42.1303 36.3629" fill="white"/>
<path d="M42.0732 35.9839L42.1792 36.31L42.0162 36.3629" fill="white"/>
<path d="M42.3994 36.2212H42.0566V36.3926" fill="white"/>
<path d="M42.3984 36.2212L42.1211 36.4227L42.0203 36.284" fill="white"/>
<path d="M41.7471 36.2212L42.0244 36.4227L42.1252 36.284" fill="white"/>
<path d="M41.7461 36.2207H42.089V36.3921" fill="white"/>
<path d="M42.2744 36.604L42.1685 36.2779L42.0054 36.3309" fill="white"/>
<path d="M42.2744 36.604L41.997 36.4025L42.0978 36.2638" fill="white"/>
<path d="M41.8711 36.6045L42.1485 36.403L42.0477 36.2643" fill="white"/>
<path d="M41.8711 36.604L41.977 36.2779L42.1401 36.3309" fill="white"/>
<path d="M40.8975 36.8447L40.765 37.2523L40.9688 37.3185" fill="white"/>
<path d="M40.8965 36.8447L41.0289 37.2523L40.8251 37.3185" fill="white"/>
<path d="M41.3047 37.1411H40.8761V37.3554" fill="white"/>
<path d="M41.3047 37.1411L40.958 37.393L40.832 37.2197" fill="white"/>
<path d="M40.4893 37.1411L40.836 37.393L40.9619 37.2197" fill="white"/>
<path d="M40.4893 37.1411H40.9178V37.3554" fill="white"/>
<path d="M41.1494 37.6201L41.017 37.2125L40.8132 37.2787" fill="white"/>
<path d="M41.1494 37.6201L40.8027 37.3682L40.9286 37.1948" fill="white"/>
<path d="M40.6455 37.6201L40.9922 37.3682L40.8663 37.1948" fill="white"/>
<path d="M40.6455 37.6196L40.7779 37.212L40.9817 37.2783" fill="white"/>
<path d="M38.0078 39.3594L37.8754 39.767L38.0792 39.8332" fill="white"/>
<path d="M38.0068 39.3594L38.1393 39.767L37.9355 39.8332" fill="white"/>
<path d="M38.415 39.6558H37.9865V39.87" fill="white"/>
<path d="M38.415 39.6558L38.0683 39.9077L37.9424 39.7343" fill="white"/>
<path d="M37.5996 39.6553L37.9463 39.9072L38.0723 39.7338" fill="white"/>
<path d="M37.5996 39.6553H38.0282V39.8696" fill="white"/>
<path d="M38.2598 40.1343L38.1273 39.7267L37.9235 39.7929" fill="white"/>
<path d="M38.2598 40.1348L37.913 39.8829L38.039 39.7095" fill="white"/>
<path d="M37.7559 40.1348L38.1026 39.8829L37.9766 39.7095" fill="white"/>
<path d="M37.7559 40.1343L37.8883 39.7267L38.0921 39.7929" fill="white"/>
<path d="M37.9922 40.6528L37.8862 40.9789L38.0493 41.0319" fill="white"/>
<path d="M37.9922 40.6528L38.0981 40.9789L37.9351 41.0319" fill="white"/>
<path d="M38.3184 40.8901H37.9755V41.0616" fill="white"/>
<path d="M38.3174 40.8901L38.04 41.0917L37.9392 40.953" fill="white"/>
<path d="M37.666 40.8896L37.9434 41.0912L38.0442 40.9525" fill="white"/>
<path d="M37.665 40.8896H38.0079V41.0611" fill="white"/>
<path d="M38.1934 41.2729L38.0874 40.9469L37.9244 40.9998" fill="white"/>
<path d="M38.1934 41.2729L37.916 41.0714L38.0167 40.9327" fill="white"/>
<path d="M37.79 41.2734L38.0674 41.0719L37.9667 40.9332" fill="white"/>
<path d="M37.79 41.2734L37.896 40.9474L38.059 41.0003" fill="white"/>
<path d="M39.2002 38.498L39.0942 38.8241L39.2573 38.8771" fill="white"/>
<path d="M39.2002 38.498L39.3061 38.8241L39.1431 38.8771" fill="white"/>
<path d="M39.5264 38.7349H39.1835V38.9063" fill="white"/>
<path d="M39.5254 38.7354L39.248 38.9369L39.1473 38.7982" fill="white"/>
<path d="M38.874 38.7349L39.1514 38.9364L39.2522 38.7977" fill="white"/>
<path d="M38.873 38.7349H39.2159V38.9063" fill="white"/>
<path d="M39.4014 39.1182L39.2954 38.7921L39.1324 38.8451" fill="white"/>
<path d="M39.4014 39.1182L39.124 38.9166L39.2248 38.7779" fill="white"/>
<path d="M38.998 39.1187L39.2754 38.9171L39.1747 38.7784" fill="white"/>
<path d="M38.998 39.1182L39.104 38.7921L39.267 38.8451" fill="white"/>
<path d="M40.1631 37.8081L40.0307 38.2157L40.2344 38.2819" fill="white"/>
<path d="M40.1621 37.8081L40.2945 38.2157L40.0907 38.2819" fill="white"/>
<path d="M40.5703 38.1045H40.1417V38.3188" fill="white"/>
<path d="M40.5703 38.1045L40.2236 38.3564L40.0976 38.183" fill="white"/>
<path d="M39.7549 38.104L40.1016 38.3559L40.2276 38.1826" fill="white"/>
<path d="M39.7549 38.104H40.1835V38.3183" fill="white"/>
<path d="M40.415 38.583L40.2826 38.1754L40.0788 38.2416" fill="white"/>
<path d="M40.415 38.5835L40.0683 38.3316L40.1943 38.1582" fill="white"/>
<path d="M39.9111 38.5835L40.2579 38.3316L40.1319 38.1582" fill="white"/>
<path d="M39.9111 38.583L40.0436 38.1754L40.2474 38.2416" fill="white"/>
<path d="M37.959 38.2695L37.853 38.5956L38.0161 38.6486" fill="white"/>
<path d="M37.959 38.2695L38.0649 38.5956L37.9019 38.6486" fill="white"/>
<path d="M38.2852 38.5068H37.9423V38.6783" fill="white"/>
<path d="M38.2842 38.5068L38.0068 38.7084L37.906 38.5697" fill="white"/>
<path d="M37.6328 38.5068L37.9102 38.7084L38.011 38.5697" fill="white"/>
<path d="M37.6318 38.5063H37.9747V38.6778" fill="white"/>
<path d="M38.1602 38.8896L38.0542 38.5636L37.8912 38.6165" fill="white"/>
<path d="M38.1602 38.8896L37.8828 38.6881L37.9835 38.5494" fill="white"/>
<path d="M37.7568 38.8901L38.0342 38.6886L37.9334 38.5499" fill="white"/>
<path d="M37.7568 38.8901L37.8628 38.5641L38.0258 38.617" fill="white"/>
<path d="M27.4287 32.061L27.2963 32.4686L27.5001 32.5348" fill="white"/>
<path d="M27.4277 32.061L27.5602 32.4686L27.3564 32.5348" fill="white"/>
<path d="M27.8359 32.3574H27.4074V32.5717" fill="white"/>
<path d="M27.8359 32.3574L27.4892 32.6093L27.3633 32.436" fill="white"/>
<path d="M27.0205 32.3569L27.3672 32.6088L27.4932 32.4355" fill="white"/>
<path d="M27.0205 32.3569H27.4491V32.5712" fill="white"/>
<path d="M27.6807 32.8364L27.5482 32.4288L27.3444 32.495" fill="white"/>
<path d="M27.6807 32.8369L27.3339 32.585L27.4599 32.4116" fill="white"/>
<path d="M27.1768 32.8364L27.5235 32.5845L27.3975 32.4112" fill="white"/>
<path d="M27.1768 32.8359L27.3092 32.4283L27.513 32.4946" fill="white"/>
<path d="M35.2656 31.0532L35.1597 31.3793L35.3227 31.4323" fill="white"/>
<path d="M35.2656 31.0532L35.3716 31.3793L35.2085 31.4323" fill="white"/>
<path d="M35.5918 31.2905H35.2489V31.462" fill="white"/>
<path d="M35.5908 31.2905L35.3134 31.4921L35.2127 31.3534" fill="white"/>
<path d="M34.9395 31.2905L35.2168 31.4921L35.3176 31.3534" fill="white"/>
<path d="M34.9385 31.2905H35.2813V31.462" fill="white"/>
<path d="M35.4668 31.6733L35.3608 31.3473L35.1978 31.4002" fill="white"/>
<path d="M35.4668 31.6738L35.1894 31.4723L35.2902 31.3336" fill="white"/>
<path d="M35.0635 31.6738L35.3409 31.4723L35.2401 31.3336" fill="white"/>
<path d="M35.0635 31.6738L35.1694 31.3478L35.3325 31.4007" fill="white"/>
<path d="M31.999 36.8735L31.8401 37.3626L32.0847 37.4421" fill="white"/>
<path d="M31.999 36.8735L32.1579 37.3626L31.9134 37.4421" fill="white"/>
<path d="M32.4883 37.2285H31.974V37.4857" fill="white"/>
<path d="M32.4893 37.2285L32.0732 37.5308L31.922 37.3228" fill="white"/>
<path d="M31.5098 37.229L31.9258 37.5313L32.077 37.3233" fill="white"/>
<path d="M31.5107 37.229H32.025V37.4861" fill="white"/>
<path d="M32.3008 37.8037L32.1419 37.3146L31.8973 37.3941" fill="white"/>
<path d="M32.3018 37.8042L31.8857 37.5019L32.0368 37.2939" fill="white"/>
<path d="M31.6963 37.8042L32.1124 37.5019L31.9612 37.2939" fill="white"/>
<path d="M31.6973 37.8037L31.8562 37.3146L32.1007 37.3941" fill="white"/>
<path d="M33.3877 34.5757L33.2553 34.9833L33.4591 35.0495" fill="white"/>
<path d="M33.3867 34.5757L33.5192 34.9833L33.3154 35.0495" fill="white"/>
<path d="M33.7949 34.8721H33.3664V35.0864" fill="white"/>
<path d="M33.7949 34.8721L33.4482 35.124L33.3222 34.9506" fill="white"/>
<path d="M32.9795 34.8716L33.3262 35.1235L33.4522 34.9501" fill="white"/>
<path d="M32.9795 34.8716H33.4081V35.0859" fill="white"/>
<path d="M33.6396 35.3506L33.5072 34.943L33.3034 35.0092" fill="white"/>
<path d="M33.6396 35.3511L33.2929 35.0992L33.4189 34.9258" fill="white"/>
<path d="M33.1357 35.3511L33.4825 35.0992L33.3565 34.9258" fill="white"/>
<path d="M33.1357 35.3506L33.2682 34.943L33.472 35.0092" fill="white"/>
<path d="M32 33.498L31.8676 33.9056L32.0714 33.9719" fill="white"/>
<path d="M31.999 33.498L32.1315 33.9056L31.9277 33.9719" fill="white"/>
<path d="M32.4072 33.7939H31.9787V34.0082" fill="white"/>
<path d="M32.4072 33.7939L32.0605 34.0459L31.9346 33.8725" fill="white"/>
<path d="M31.5918 33.7939L31.9385 34.0459L32.0645 33.8725" fill="white"/>
<path d="M31.5918 33.7939H32.0204V34.0082" fill="white"/>
<path d="M32.252 34.2729L32.1195 33.8654L31.9157 33.9316" fill="white"/>
<path d="M32.252 34.2729L31.9052 34.021L32.0312 33.8477" fill="white"/>
<path d="M31.748 34.2734L32.0948 34.0215L31.9688 33.8482" fill="white"/>
<path d="M31.748 34.2729L31.8805 33.8654L32.0843 33.9316" fill="white"/>
<path d="M30.792 34.6611L30.686 34.9872L30.8491 35.0402" fill="white"/>
<path d="M30.792 34.6611L30.8979 34.9872L30.7349 35.0402" fill="white"/>
<path d="M31.1182 34.8984H30.7753V35.0699" fill="white"/>
<path d="M31.1172 34.8984L30.8398 35.1L30.739 34.9613" fill="white"/>
<path d="M30.4658 34.8979L30.7432 35.0995L30.844 34.9608" fill="white"/>
<path d="M30.4648 34.8979H30.8077V35.0694" fill="white"/>
<path d="M30.9932 35.2812L30.8872 34.9552L30.7242 35.0081" fill="white"/>
<path d="M30.9932 35.2812L30.7158 35.0797L30.8166 34.941" fill="white"/>
<path d="M30.5898 35.2817L30.8672 35.0802L30.7665 34.9415" fill="white"/>
<path d="M30.5898 35.2812L30.6958 34.9552L30.8588 35.0081" fill="white"/>
<path d="M31.3955 35.5918L31.3198 35.8247L31.4363 35.8625" fill="white"/>
<path d="M31.3965 35.5918L31.4722 35.8247L31.3557 35.8625" fill="white"/>
<path d="M31.6289 35.7612H31.384V35.8837" fill="white"/>
<path d="M31.6289 35.7612L31.4308 35.9052L31.3588 35.8061" fill="white"/>
<path d="M31.1631 35.7607L31.3612 35.9047L31.4332 35.8056" fill="white"/>
<path d="M31.1631 35.7607H31.408V35.8832" fill="white"/>
<path d="M31.54 36.0347L31.4644 35.8018L31.3479 35.8396" fill="white"/>
<path d="M31.54 36.0347L31.3419 35.8907L31.4139 35.7917" fill="white"/>
<path d="M31.252 36.0347L31.4501 35.8907L31.3781 35.7917" fill="white"/>
<path d="M31.252 36.0347L31.3276 35.8018L31.4441 35.8396" fill="white"/>
<path d="M35.5918 39.6528L35.4594 40.0604L35.6632 40.1266" fill="white"/>
<path d="M35.5908 39.6528L35.7233 40.0604L35.5195 40.1266" fill="white"/>
<path d="M35.999 39.9492H35.5705V40.1635" fill="white"/>
<path d="M35.999 39.9492L35.6523 40.2011L35.5263 40.0278" fill="white"/>
<path d="M35.1836 39.9487L35.5303 40.2006L35.6563 40.0273" fill="white"/>
<path d="M35.1836 39.9487H35.6122V40.163" fill="white"/>
<path d="M35.8438 40.4277L35.7113 40.0201L35.5075 40.0864" fill="white"/>
<path d="M35.8438 40.4282L35.497 40.1763L35.623 40.003" fill="white"/>
<path d="M35.3398 40.4282L35.6866 40.1763L35.5606 40.003" fill="white"/>
<path d="M35.3398 40.4282L35.4723 40.0206L35.6761 40.0868" fill="white"/>
<path d="M36.6201 38.6777L36.5142 39.0038L36.6772 39.0568" fill="white"/>
<path d="M36.6201 38.6777L36.7261 39.0038L36.563 39.0568" fill="white"/>
<path d="M36.9463 38.915H36.6034V39.0865" fill="white"/>
<path d="M36.9453 38.915L36.6679 39.1166L36.5672 38.9779" fill="white"/>
<path d="M36.2939 38.9146L36.5713 39.1161L36.6721 38.9774" fill="white"/>
<path d="M36.293 38.9146H36.6358V39.086" fill="white"/>
<path d="M36.8213 39.2979L36.7153 38.9718L36.5523 39.0247" fill="white"/>
<path d="M36.8213 39.2983L36.5439 39.0968L36.6447 38.9581" fill="white"/>
<path d="M36.418 39.2983L36.6953 39.0968L36.5946 38.9581" fill="white"/>
<path d="M36.418 39.2983L36.5239 38.9723L36.687 39.0252" fill="white"/>
<path d="M34.6445 38.3838L34.5386 38.7099L34.7016 38.7628" fill="white"/>
<path d="M34.6445 38.3838L34.7505 38.7099L34.5874 38.7628" fill="white"/>
<path d="M34.9707 38.6211H34.6278V38.7925" fill="white"/>
<path d="M34.9697 38.6211L34.6923 38.8226L34.5916 38.6839" fill="white"/>
<path d="M34.3184 38.6206L34.5957 38.8221L34.6965 38.6834" fill="white"/>
<path d="M34.3174 38.6206H34.6602V38.792" fill="white"/>
<path d="M34.8457 39.0039L34.7398 38.6778L34.5767 38.7308" fill="white"/>
<path d="M34.8457 39.0039L34.5683 38.8024L34.6691 38.6637" fill="white"/>
<path d="M34.4424 39.0039L34.7198 38.8024L34.619 38.6637" fill="white"/>
<path d="M34.4424 39.0039L34.5483 38.6778L34.7114 38.7308" fill="white"/>
<path d="M27.1826 37.853L27.0237 38.3421L27.2683 38.4216" fill="white"/>
<path d="M27.1826 37.853L27.3415 38.3421L27.097 38.4216" fill="white"/>
<path d="M27.6719 38.2085H27.1576V38.4656" fill="white"/>
<path d="M27.6729 38.2085L27.2568 38.5108L27.1056 38.3028" fill="white"/>
<path d="M26.6934 38.2085L27.1094 38.5108L27.2606 38.3028" fill="white"/>
<path d="M26.6943 38.2085H27.2086V38.4656" fill="white"/>
<path d="M27.4844 38.7832L27.3255 38.2941L27.0809 38.3735" fill="white"/>
<path d="M27.4854 38.7837L27.0693 38.4814L27.2204 38.2734" fill="white"/>
<path d="M26.8799 38.7837L27.2959 38.4814L27.1448 38.2734" fill="white"/>
<path d="M26.8809 38.7832L27.0398 38.2941L27.2843 38.3735" fill="white"/>
<path d="M31.999 41.2163L31.946 41.3793L32.0276 41.4058" fill="white"/>
<path d="M32.001 41.2163L32.054 41.3793L31.9724 41.4058" fill="white"/>
<path d="M32.1621 41.3345H31.9907V41.4202" fill="white"/>
<path d="M32.1631 41.3354L32.0244 41.4362L31.974 41.3669" fill="white"/>
<path d="M31.8359 41.335L31.9746 41.4357L32.025 41.3664" fill="white"/>
<path d="M31.8369 41.334H32.0083V41.4197" fill="white"/>
<path d="M32.1006 41.5264L32.0476 41.3633L31.9661 41.3898" fill="white"/>
<path d="M32.1006 41.5269L31.9619 41.4261L32.0123 41.3567" fill="white"/>
<path d="M31.8984 41.5264L32.0371 41.4256L31.9867 41.3563" fill="white"/>
<path d="M31.8984 41.5259L31.9514 41.3628L32.0329 41.3893" fill="white"/>
</g>
</svg>
