<svg height="32" viewBox="7 2 25 25" width="32" xmlns="http://www.w3.org/2000/svg"><title>lock</title><path d="M16 21.5c1.1 0 2-0.9 2-2s-0.9-2-2-2-2 0.9-2 2 0.9 2 2 2z"></path><path d="M22 13.7c0.4 0 0.8 0.4 0.8 0.8v10c0 0.4-0.4 0.8-0.8 0.8h-12c-0.4 0-0.8-0.4-0.8-0.8v-10c0-0.4 0.4-0.8 0.8-0.8h12zM22 12.5h-12c-1.1 0-2 0.9-2 2v10c0 1.1 0.9 2 2 2h12c1.1 0 2-0.9 2-2v-10c0-1.1-0.9-2-2-2v0z"></path><path d="M16 6.7c2.1 0 3.8 1.7 3.8 3.8v2h-7.6v-2c0-2.1 1.7-3.8 3.8-3.8zM16 5.5c-2.8 0-5 2.2-5 5v3.2h10v-3.2c0-2.7-2.2-5-5-5v0z"></path></svg>