<svg height="35" viewBox="0 0 35 35" width="35" xmlns="http://www.w3.org/2000/svg"><title>faq</title><path d="M29.4 4.4c0.8 0 1.4 0.6 1.4 1.4v9.2c0 0.8-0.6 1.4-1.4 1.4h-12.4c-0.6 0-1.1 0.4-1.2 0.6l-2.9 3c-0.2 0.2-0.4 0.2-0.5 0.2 0 0-0.5 0-0.5-0.4v-14c0-0.8 0.6-1.4 1.4-1.4h16.1zM29.4 3.8h-16.1c-1.2 0-2 0.8-2 2v14.1c0 0.6 0.5 1 1.1 1 0.3 0 0.6-0.1 0.9-0.4l2.9-3c0.2-0.2 0.5-0.4 0.8-0.4h12.5c1.2 0 2-0.8 2-2v-9.3c0-1.2-0.9-2-2.1-2v0z"></path><path d="M16.2 28.2c-0.2 0-0.4-0.1-0.6-0.2l-2.6-2.9c0 0-0.3-0.1-0.4-0.1h-10.2c-1.2-0.2-1.9-1-1.9-2.3v-8.1c0-1.4 0.8-2.3 1.9-2.3h7.2v0.6h-7.1c-0.8 0-1.3 0.7-1.3 1.7v8.1c0 1 0.4 1.6 1.3 1.7h10c0.3 0 0.7 0.2 0.9 0.3l2.7 2.9c0.1 0.1 0.1 0.1 0.2 0.1 0 0 0-0.1 0-0.1v-8.1h0.6v8.1c0 0.3-0.2 0.6-0.4 0.7-0.1-0.1-0.2-0.1-0.3-0.1z"></path><path d="M8.2 17.9c-0.6 0-1-0.5-1-1 0-0.2-0.2-0.4-0.4-0.4s-0.4 0.2-0.4 0.4c0 0.6-0.5 1-1 1-0.6 0-1-0.5-1-1v-0.2c-0.1-0.1-0.2-0.2-0.4-0.2s-0.4 0.2-0.4 0.4h-0.8c0-0.6 0.5-1 1-1 0.6 0 1 0.5 1 1v0.1c0.1 0.1 0.2 0.2 0.4 0.2s0.4-0.2 0.4-0.4c0-0.6 0.5-1 1-1s1 0.5 1 1c0 0.2 0.2 0.4 0.4 0.4s0.4-0.2 0.4-0.4c0-0.6 0.5-1 1-1v0.6c-0.2 0-0.4 0.2-0.4 0.4 0.2 0.6-0.3 1.1-0.8 1.1z"></path><path d="M8.2 21.5c-0.6 0-1-0.5-1-1 0-0.3-0.2-0.5-0.5-0.5-0.2 0-0.4 0.2-0.4 0.4 0 0.6-0.5 1-1 1-0.6 0-1-0.5-1-1v-0.2c-0.1-0.1-0.3-0.2-0.4-0.2-0.2 0-0.4 0.2-0.4 0.4h-0.7c0-0.6 0.5-1 1-1 0.6 0 1 0.5 1 1v0.2c0.1 0.1 0.2 0.2 0.4 0.2s0.4-0.2 0.4-0.4c0-0.6 0.5-1 1-1s1 0.5 1 1c0 0.2 0.2 0.4 0.4 0.4s0.4-0.2 0.4-0.4c0-0.6 0.5-1 1-1v0.6c-0.2 0-0.4 0.2-0.4 0.4 0.2 0.6-0.3 1.1-0.8 1.1z"></path><path d="M21.2 14.9c-0.6 0-1.1-0.5-1.1-1.1s0.5-1.1 1.1-1.1c0.6 0 1.1 0.5 1.1 1.1s-0.5 1.1-1.1 1.1zM21.2 13.3c-0.3 0-0.5 0.2-0.5 0.5s0.2 0.5 0.5 0.5 0.5-0.2 0.5-0.5-0.2-0.5-0.5-0.5z"></path><path d="M21.2 12.1c-0.6 0-1-0.5-1-1v-0.4c0-0.9 0.6-1.4 1.1-1.8l0.1-0.1c0.2-0.2 0.4-0.4 0.4-0.5 0-0.2-0.2-0.4-0.4-0.4s-0.4 0.2-0.4 0.5c0 0.6-0.5 1-1 1-0.6 0-1-0.5-1-1 0-1.4 1.1-2.5 2.5-2.5s2.5 1.1 2.5 2.5c0 1-0.7 1.6-1.2 2l-0.1 0.1c-0.1 0.1-0.3 0.2-0.3 0.3v0.3c-0.1 0.6-0.6 1-1.2 1zM21.4 7.4c0.6 0 1 0.5 1 1 0 0.3-0.3 0.6-0.6 0.9l-0.1 0.1c-0.5 0.4-0.9 0.7-0.9 1.4v0.4c0 0.2 0.2 0.4 0.4 0.4s0.4-0.2 0.4-0.4v-0.4c0-0.2 0.2-0.4 0.6-0.7l0.1-0.1c0.5-0.4 1-0.8 1-1.6 0-1-0.8-1.9-1.9-1.9s-1.9 0.8-1.9 1.9c0 0.2 0.2 0.4 0.4 0.4s0.4-0.2 0.4-0.4c0.1-0.6 0.6-1 1.1-1z"></path></svg>