<svg class="Icon--instagram-5b003142 Footer__menu__icon"><use xmlns:xlink="http://www.w3.org/2000/xlink" xlink:href="#Icon--instagram-5b003142"><symbol id="Icon--instagram-5b003142" viewBox="0 0 32 32"><title>instagram</title><path fill="#fff" d="M22.5 0h-13c-5.2 0-9.5 4.3-9.5 9.5v12.9c0 5.3 4.3 9.6 9.5 9.6h12.9c5.3 0 9.5-4.3 9.5-9.5v-13c0.1-5.2-4.2-9.5-9.4-9.5zM28.8 22.5c0 3.5-2.8 6.3-6.3 6.3h-13c-3.5 0-6.3-2.8-6.3-6.3v-13c0-3.5 2.8-6.3 6.3-6.3h12.9c3.5 0 6.3 2.8 6.3 6.3l0.1 13z"></path><path fill="#fff" d="M16 7.7c-4.6 0-8.3 3.7-8.3 8.3s3.7 8.3 8.3 8.3 8.3-3.7 8.3-8.3-3.7-8.3-8.3-8.3zM16 21.1c-2.8 0-5.1-2.3-5.1-5.1s2.3-5.1 5.1-5.1c2.8 0 5.1 2.3 5.1 5.1s-2.3 5.1-5.1 5.1z"></path><path fill="#fff" d="M26.3 7.8c0 1.105-0.895 2-2 2s-2-0.895-2-2c0-1.105 0.895-2 2-2s2 0.895 2 2z"></path></symbol></use></svg>