<svg class="Icon--spotify-1b370442 Footer__menu__icon"><use xmlns:xlink="http://www.w3.org/2000/xlink" xlink:href="#Icon--spotify-1b370442"><symbol id="Icon--spotify-1b370442" viewBox="0 0 32 32"><title>spotify</title><path fill="#fff" d="M25.2 25.5c-0.3 0.5-0.8 0.8-1.3 0.8-0.3 0-0.5-0.1-0.8-0.2-4-2.3-8.6-2.7-11.7-2.6-3.5 0.1-6.1 0.8-6.1 0.8-0.8 0.2-1.6-0.3-1.9-1.1-0.2-0.8 0.3-1.6 1.1-1.9 0.1 0 2.9-0.8 6.7-0.9 2.3-0.1 4.4 0.1 6.5 0.5 2.6 0.5 4.9 1.3 7 2.5 0.7 0.4 1 1.3 0.5 2.1z"></path><path fill="#fff" d="M28.1 19.6c-0.3 0.6-0.9 0.9-1.6 0.9-0.3 0-0.6-0.1-0.9-0.2-4.7-2.8-10.2-3.2-13.9-3.1-4.1 0.1-7.2 0.9-7.2 1-1 0.3-1.9-0.3-2.2-1.3s0.3-1.9 1.3-2.2c0.1 0 3.4-0.9 8-1.1 2.7-0.1 5.3 0.1 7.7 0.6 3 0.6 5.8 1.6 8.3 3 0.7 0.5 1 1.6 0.5 2.4z"></path><path fill="#fff" d="M29.8 14.3c-0.4 0-0.8-0.1-1.1-0.3-11.2-6.6-25.8-2.7-25.9-2.6-1.2 0.3-2.4-0.4-2.7-1.6s0.4-2.4 1.5-2.7c0.2 0 4.2-1.1 9.8-1.3 3.3-0.1 6.4 0.1 9.4 0.7 3.7 0.7 7.1 2 10.1 3.7 1 0.6 1.4 2 0.8 3-0.4 0.7-1.1 1.1-1.9 1.1z"></path></symbol></use></svg>