<svg class="Icon--youtube-d204838b Footer__menu__icon"><use xmlns:xlink="http://www.w3.org/2000/xlink" xlink:href="#Icon--youtube-d204838b"><symbol id="Icon--youtube-d204838b" viewBox="0 0 98 98"><style type="text/css">
	.st0{fill:#FFFFFF;}
</style><path class="st0" d="M96,25.4c-1.1-4.2-4.4-7.5-8.7-8.7c-7.6-2-38.3-2-38.3-2s-30.6,0-38.3,2c-4.2,1.1-7.5,4.4-8.7,8.7  C0,33.1,0,49,0,49s0,15.9,2,23.6c1.1,4.2,4.4,7.5,8.7,8.7c7.6,2,38.3,2,38.3,2s30.6,0,38.3-2c4.2-1.1,7.5-4.4,8.7-8.7  c2-7.6,2-23.6,2-23.6S98,33.1,96,25.4z M39.2,63.7V34.3L64.7,49C64.7,49,39.2,63.7,39.2,63.7z"></path></symbol></use></svg>