<svg width="39" height="32" viewBox="0 0 39 32" fill="none" xmlns="http://www.w3.org/2000/svg">
            <path d="M3 8.62733C3.19073 8.15466 3.3234 7.63224 3.59705 7.21762C4.13606 6.39667 4.96531 5.99863 5.93552 5.99034C7.59401 5.96546 9.25249 5.98205 10.911 5.98205C10.9441 5.98205 10.969 5.99863 11.0188 6.00692C11.0188 9.97071 11.0188 13.9345 11.0188 17.9314C10.8446 17.9314 10.6788 17.9314 10.5129 17.9314C9.11152 17.9314 7.70181 17.8983 6.30039 17.9397C4.60044 17.9895 3.26536 16.9363 3.02488 15.3359C3.02488 15.311 3.00829 15.2944 3 15.2779C3 13.0555 3 10.8414 3 8.62733Z" fill="#A9A9A9"></path>
            <path d="M22.9682 21.6216C19.6429 20.5104 16.3425 19.4158 13.0421 18.3129C13.0421 14.0672 13.0421 9.82973 13.0421 5.58401C16.3425 4.48112 19.6429 3.38652 22.9682 2.27533C22.9682 8.72684 22.9682 15.1452 22.9682 21.6216Z" fill="#A9A9A9"></path>
            <path d="M28.9636 11.9526C28.9636 15.2281 28.9636 18.5036 28.9636 21.7791C28.9636 22.8157 28.3914 23.5952 27.471 23.8357C26.3183 24.1425 25.1574 23.3547 24.9998 22.1523C24.9832 22.0113 24.9832 21.8621 24.9832 21.7211C24.9832 15.2032 24.9832 8.69367 24.9832 2.17582C24.9832 1.17244 25.4559 0.426121 26.2686 0.127593C27.471 -0.311905 28.7314 0.426121 28.9387 1.69486C28.9719 1.8773 28.9719 2.06802 28.9719 2.25875C28.9636 5.4928 28.9636 8.71855 28.9636 11.9526Z" fill="#A9A9A9"></path>
            <path d="M6.33357 19.9216C6.45795 19.9216 6.57405 19.9216 6.69014 19.9216C8.19107 19.9216 9.70029 19.905 11.2012 19.9299C11.5578 19.9382 11.9061 20.0709 12.2544 20.1704C12.329 20.1953 12.3953 20.3445 12.4119 20.4523C12.47 20.9333 12.5114 21.4226 12.5529 21.9118C13.0753 21.9118 13.5811 21.9367 14.0787 21.9035C14.5679 21.8786 14.8333 21.5469 14.9909 21.0743C15.6211 21.2816 16.2347 21.4889 16.8815 21.6962C16.185 23.7278 14.6011 24.0513 12.7353 23.8771C12.8017 24.5986 12.8597 25.2702 12.926 25.9419C12.9758 26.5473 13.1002 27.136 12.9095 27.7497C12.528 28.977 11.2924 29.914 10.0154 29.8808C8.62228 29.8477 7.395 28.9106 7.14622 27.6087C6.98867 26.7795 6.94721 25.917 6.85599 25.0712C6.68185 23.4542 6.50771 21.8372 6.33357 20.2201C6.32527 20.1289 6.33357 20.0377 6.33357 19.9216Z" fill="#A9A9A9"></path>
            <path d="M32.0484 13.9428C32.1147 13.9594 32.2723 13.9925 32.405 14.0589C33.7401 14.714 35.0834 15.3608 36.4185 16.0325C36.8331 16.2398 37.0487 16.6544 36.9907 17.0607C36.9326 17.4754 36.6258 17.8402 36.2029 17.89C35.9873 17.9148 35.7302 17.89 35.5312 17.7905C34.1961 17.1519 32.8693 16.5051 31.5509 15.8417C31.0782 15.6096 30.8709 15.1452 30.9953 14.6891C31.1114 14.2413 31.5094 13.9345 32.0484 13.9428Z" fill="#A9A9A9"></path>
            <path d="M36.999 5.03672C36.9824 5.35184 36.8248 5.66695 36.4849 5.84109C35.1166 6.52936 33.7401 7.20934 32.3552 7.87273C31.8577 8.11322 31.2938 7.88103 31.0616 7.40007C30.8294 6.91911 30.987 6.34693 31.4928 6.09816C32.8528 5.40988 34.2127 4.7299 35.5893 4.08309C36.261 3.75969 36.999 4.25724 36.999 5.03672Z" fill="#A9A9A9"></path>
            <path d="M34.0137 9.95412C34.6522 9.95412 35.2907 9.94583 35.9375 9.95412C36.5595 9.96241 36.9989 10.377 36.9989 10.9409C36.9989 11.5048 36.5594 11.936 35.9458 11.9443C34.6356 11.9526 33.3171 11.9526 32.0069 11.9443C31.3933 11.9443 30.9538 11.5131 30.9621 10.9409C30.9704 10.3687 31.4016 9.96241 32.0318 9.95412C32.6869 9.95412 33.3503 9.95412 34.0137 9.95412Z" fill="#A9A9A9"></path>
          </svg>