<svg width="37" height="25" viewBox="0 0 37 25" fill="none" xmlns="http://www.w3.org/2000/svg">
            <g clip-path="url(#clip0)">
            <path d="M35.3951 17.5031C35.3951 17.9606 35.0344 18.3344 34.5927 18.3344H32.9805C32.5388 18.3344 32.1781 17.9606 32.1781 17.5031V7.49695C32.1781 7.03935 32.5388 6.66565 32.9805 6.66565H34.5927C35.0344 6.66565 35.3951 7.03935 35.3951 7.49695V17.5031ZM30.5659 22.4985C30.5659 22.9561 30.2051 23.3298 29.7634 23.3298H28.1512C27.7095 23.3298 27.3488 22.9561 27.3488 22.4985V2.50153C27.3488 2.04393 27.7095 1.67023 28.1512 1.67023H29.7634C30.2051 1.67023 30.5659 2.04393 30.5659 2.50153V7.50458V17.5031V22.4985ZM11.2634 15.0015V9.99848H25.7439V15.0015H11.2634ZM9.65121 22.4985C9.65121 22.9561 9.29049 23.3298 8.84879 23.3298H7.23657C6.79487 23.3298 6.43414 22.9561 6.43414 22.4985V17.4954V7.49695V2.50153C6.43414 2.04393 6.79487 1.67023 7.23657 1.67023H8.84879C9.29049 1.67023 9.65121 2.04393 9.65121 2.50153V22.4985ZM4.0195 18.3344H2.41464C1.97294 18.3344 1.61222 17.9606 1.61222 17.5031V7.49695C1.61222 7.03935 1.97294 6.66565 2.41464 6.66565H4.02686C4.46856 6.66565 4.82929 7.03935 4.82929 7.49695V17.4954C4.82929 17.9606 4.46856 18.3344 4.0195 18.3344ZM34.5927 5.00305H32.9805C32.7008 5.00305 32.4284 5.06406 32.1781 5.15558V2.50153C32.1781 1.12111 31.0959 0 29.7634 0H28.1512C26.8187 0 25.7366 1.12111 25.7366 2.50153V8.33588H11.2634V2.50153C11.2634 1.12111 10.1813 0 8.84879 0H7.23657C5.91146 0 4.82929 1.12111 4.82929 2.50153V5.15558C4.57899 5.06406 4.30661 5.00305 4.02686 5.00305H2.41464C1.08217 5.00305 0 6.12416 0 7.49695V17.4954C0 18.8758 1.08217 19.997 2.41464 19.997H4.02686C4.30661 19.997 4.57899 19.9359 4.82929 19.8444V22.4985C4.82929 23.8789 5.91146 25 7.24393 25H8.85615C10.1886 25 11.2708 23.8789 11.2708 22.4985V16.6641H25.7513V22.4985C25.7513 23.8789 26.8335 25 28.1659 25H29.7782C31.1106 25 32.1928 23.8789 32.1928 22.4985V19.8444C32.4431 19.9359 32.7155 19.997 32.9952 19.997H34.6074C35.9399 19.997 37.0221 18.8758 37.0221 17.4954V7.49695C37 6.12416 35.9178 5.00305 34.5927 5.00305Z" fill="#ffc222"></path>
            <path d="M26.0458 9.1748H10.3579V16.2523H26.0458V9.1748Z" fill="#ffc222"></path>
            </g>
            <defs>
            <clipPath id="clip0">
            <rect width="37" height="25" fill="#ffc222"></rect>
            </clipPath>
            </defs>
          </svg>