<svg width="40" height="29" viewBox="0 0 40 29" fill="none" xmlns="http://www.w3.org/2000/svg">
                    <path d="M20.5417 0C12.5912 0 6.15057 6.496 6.15057 14.4957C6.15057 22.504 12.5997 29 20.5502 29C28.5008 29 34.9414 22.504 34.9414 14.4957C34.9328 6.496 28.4922 0 20.5417 0ZM20.3882 23.7929C15.3977 23.7929 11.3457 19.72 11.3457 14.6847C11.3457 9.65807 15.3892 5.58519 20.3882 5.58519C25.37 5.58519 29.4221 9.65807 29.4221 14.6847C29.4135 19.72 25.37 23.7929 20.3882 23.7929Z" fill="#32CD32"></path>
                    <path d="M4.61506 2.57778H4.00938L4.18853 8.94489H3.46342V2.57778H2.93453V8.98785H2.32885V2.57778H1.74877V8.98785H1.04073L1.23694 2.57778H0.682448L0.0170612 7.9997C0.0170612 7.9997 0 8.20593 0 8.28326C0 9.11674 0.383877 9.8643 0.98955 10.3455C2.96865 12.5967 1.62081 14.9081 1.62081 15.4581C1.62081 16.0596 1.62081 25.3739 1.62081 25.3739C1.62081 25.3825 1.62081 25.3825 1.62081 25.3911C1.62081 25.9582 2.08147 26.4222 2.64449 26.4222C3.21604 26.4222 3.66816 25.9582 3.66816 25.3911C3.66816 25.3825 3.66816 25.3825 3.65963 25.3739H3.66816C3.66816 25.3739 3.66816 16.1799 3.66816 15.4753C3.66816 14.8394 2.52506 12.1929 4.43591 10.2252L4.44444 10.2166C4.91363 9.76978 5.22073 9.1597 5.27191 8.4723C5.27191 8.42074 5.27191 8.30044 5.27191 8.30044L4.61506 2.57778Z" fill="#32CD32"></path>
                    <path d="M39.9915 17.9499C40 17.3399 39.983 2.57778 39.983 2.57778H39.6503C39.6503 2.57778 36.9205 4.12444 36.9205 15.6299C39.0105 16.2056 38.1318 18.517 37.9783 18.8092C37.9783 19.3935 38.0209 25.4083 38.0209 25.4083L38.0295 25.3997C38.0295 25.4083 38.0209 25.4083 38.0209 25.4255C38.0209 25.9754 38.4645 26.4222 39.0105 26.4222C39.5564 26.4222 40.0086 25.9754 40 25.4255C40.0086 25.4169 40.0086 25.4083 40 25.4083L40.0086 25.3997C40 25.3997 40 18.6287 39.9915 17.9499Z" fill="#32CD32"></path>
                </svg>