<svg class="me-2" width="28" height="25" viewBox="0 0 28 25" fill="none" xmlns="http://www.w3.org/2000/svg">
            <path d="M13.988 2.29738C7.88492 -2.98506 0.130721 1.65616 -0.000444703 7.94624C-0.0313072 9.54929 0.43163 11.1142 1.36522 12.5493H7.39884L8.47131 10.7783C8.77993 10.2668 9.53607 10.2516 9.86784 10.763L12.1362 14.2821L15.4385 7.38898C15.724 6.78593 16.5881 6.77066 16.9045 7.35082L19.7361 12.5493H26.6185C31.7185 4.66379 21.6342 -4.3133 13.988 2.29738Z" fill="white"></path>
            <path d="M18.5175 13.7481L16.2259 9.53435L12.9854 16.3053C12.7076 16.8855 11.8975 16.9313 11.5503 16.3969L9.197 12.7405L8.56432 13.7786C8.41772 14.0229 8.14767 14.1756 7.8622 14.1756H2.66187C2.82389 14.3435 1.95203 13.4885 13.4097 24.7634C13.7261 25.0763 14.2507 25.0763 14.5671 24.7634C25.8473 13.6641 25.1529 14.3435 25.3149 14.1756H19.235C18.9418 14.1756 18.6641 14.0153 18.5175 13.7481Z" fill="white"></path>
          </svg>