<?xml version="1.0" encoding="utf-8"?>
<!-- Generator: Adobe Illustrator 21.1.0, SVG Export Plug-In . SVG Version: 6.00 Build 0)  -->
<svg version="1.1" id="Layer_1" xmlns="http://www.w3.org/2000/svg" xmlns:xlink="http://www.w3.org/1999/xlink" x="0px" y="0px"
	 viewBox="0 0 186 69" style="enable-background:new 0 0 186 69;" xml:space="preserve">
<style type="text/css">
	.st0{fill-rule:evenodd;clip-rule:evenodd;fill:#FCB823;}
	.st1{fill:#FFFFFF;}
</style>
<g>
	<path class="st0" d="M121.6,48.3V12.7c0-12.1,12.7-14.7,21.8-11.3v6.8c-6.2-2.5-13.2-2-13.2,5.9h10.1v6.8h-10.1v27.3L121.6,48.3z"
		/>
	<path class="st0" d="M161.9,8.8h6.3l1.3,5.3h7.9v6.8h-6.9v15.8c0,3.2,1.4,4.7,4.1,4.7h4.3v6.8h-8.5c-5.7,0-8.5-3-8.5-9.1V8.8z"/>
	<rect x="146.8" y="14.1" class="st0" width="8.5" height="34"/>
	<rect x="146.8" y="1.8" class="st0" width="8.5" height="7"/>
	<path class="st0" d="M186,48.2c-7.5,11.8-20.7,19.7-35.8,19.7c-15.1,0-28.3-7.9-35.8-19.7c8.8,8.1,21.6,13.2,35.8,13.2
		C164.4,61.4,177.2,56.3,186,48.2"/>
	<path class="st1" d="M1.1,40.3v-4.6c2.5,1,5.3,1.5,8.5,1.5c2.4,0,3.6-0.8,3.6-2.3c0-1.4-0.8-2.1-2.4-2.1h-4C2.2,32.7,0,30.5,0,26
		c0-4.6,3.3-7,9.9-7c2.8,0,5.4,0.4,7.9,1.3v4.6c-2.5-1-5.1-1.5-8-1.5c-3,0-4.5,0.8-4.5,2.3c0,1.4,0.9,2.1,2.6,2.1h3.6
		c4.9,0,7.4,2.2,7.4,6.8c0,4.6-3.1,7-9.4,7C6.3,41.6,3.5,41.2,1.1,40.3 M22.7,41.4V19.2H27l0.7,2.8c2.5-1.9,5.1-2.8,7.6-2.8
		c2.8,0,4.8,1,5.9,3c2.8-2,5.5-3,8-3c4.7,0,7,2.8,7,8.4v13.7h-5.6v-14c0-2.5-1-3.7-3.1-3.7c-1.7,0-3.4,1-5.2,2.9v14.8h-5.6V27.5
		c0-2.5-1-3.8-3.1-3.8c-1.8,0-3.5,1-5.3,2.9v14.8H22.7z M60.2,34.5c0-4.5,3.2-6.8,9.6-6.8c1.9,0,3.6,0.1,5.2,0.4v-1.5
		c0-2-1.9-3-5.8-3c-2.4,0-4.8,0.4-7.2,1.1v-4.4c2.4-0.7,4.8-1.1,7.2-1.1c7.6,0,11.4,2.4,11.4,7.3v14.9h-2.8l-2.4-1.6
		c-1.9,1-4,1.6-6.2,1.6C63.2,41.4,60.2,39.1,60.2,34.5z M75,32.3c-1.4-0.3-3.1-0.4-5.2-0.4c-2.7,0-4,0.8-4,2.5
		c0,1.7,1.1,2.5,3.4,2.5c2.3,0,4.2-0.6,5.8-1.7V32.3z M86,41.4V19.2h4.3l0.7,2.8c1.9-1.9,4-2.8,6.2-2.8v4.5c-2.1,0-4,0.9-5.6,2.8
		v14.8H86z M100.7,15.6h4.1l0.9,3.6h5.1v4.4h-4.5v10.2c0,2.1,0.9,3.1,2.7,3.1h1.9v4.4h-4.6c-3.7,0-5.6-2-5.6-6V15.6z"/>
	<path class="st1" d=""/>
</g>
</svg>
